<?xml version="1.0" encoding="UTF-8"?><svg id="Layer_2" xmlns="http://www.w3.org/2000/svg" viewBox="0 0 650 650" fill="white"  opacity="0.02"><defs><style></style></defs><g id="Outline_-_BG_Dark"><g id="Outline_-_BG_Dark-2"><path class="cls-1" d="M350,76.79c20.51,11.87,38.95,27.39,54.25,45.89,14.5,17.55,25.81,37.22,33.6,58.47,8.06,21.99,12.15,45.15,12.15,68.84,0,53.42-20.8,103.65-58.58,141.42-37.78,37.78-88,58.58-141.42,58.58-17.65,0-35.05-2.3-51.81-6.77l49.31-49.31c32.1-32.1,57.32-69.52,74.95-111.21,18.28-43.21,27.55-89.05,27.55-136.25V76.79M300,5V146.46c0,40.47-7.94,79.76-23.6,116.77-15.11,35.72-36.73,67.8-64.26,95.33l-100.01,100.01c39.52,26.18,86.92,41.43,137.86,41.43,138.07,0,250-111.93,250-250,0-120.94-85.89-221.83-200-245h0Z"/><path class="cls-1" d="M200,56.3v90.17c0,53.41-20.8,103.62-58.57,141.39l-91.43,91.43V250c0-24.06,4.21-47.56,12.52-69.85,8.03-21.54,19.67-41.43,34.59-59.09,26.87-31.82,63-54.47,102.89-64.76M250,0c-15.21,0-30.11,1.36-44.57,3.96C88.62,24.98,0,127.15,0,250v250l176.79-176.79c45.24-45.24,73.21-107.72,73.21-176.74V0h0Z"/></g></g></svg>