<?xml version="1.0" encoding="UTF-8"?>
<svg xmlns="http://www.w3.org/2000/svg" xmlns:xlink="http://www.w3.org/1999/xlink" width="0" height="0">
  <symbol id="i-facebook" fill="currentColor" viewBox="0 0 32 33">
    <path
      d="M32 16.947C32 8.056 24.837.849 16.002.849 7.163.85 0 8.056 0 16.949c0 8.033 5.851 14.692 13.498 15.9V21.6h-4.06v-4.651h4.064v-3.55c0-4.033 2.39-6.261 6.044-6.261 1.751 0 3.581.314 3.581.314v3.96H21.11c-1.985 0-2.605 1.241-2.605 2.515v3.02h4.435l-.708 4.651h-3.73v11.249C26.15 31.639 32 24.98 32 16.947Z" />
  </symbol>
  <symbol id="i-instagram" fill="currentColor" viewBox="0 0 32 33">
    <path
      d="M16 .849c-4.342 0-4.888.02-6.594.096-1.706.08-2.868.348-3.886.744a7.834 7.834 0 0 0-2.834 1.846A7.854 7.854 0 0 0 .84 6.369c-.396 1.016-.666 2.18-.744 3.88C.02 11.959 0 12.503 0 16.85c0 4.344.02 4.888.096 6.594.08 1.704.348 2.866.744 3.884a7.858 7.858 0 0 0 1.846 2.834 7.808 7.808 0 0 0 2.832 1.846c1.02.396 2.18.666 3.884.744 1.708.076 2.252.096 6.598.096s4.888-.02 6.596-.096c1.702-.08 2.868-.348 3.886-.744a7.831 7.831 0 0 0 2.832-1.846 7.858 7.858 0 0 0 1.846-2.834c.394-1.018.664-2.18.744-3.884.076-1.706.096-2.25.096-6.596s-.02-4.89-.096-6.598c-.08-1.702-.35-2.866-.744-3.882a7.853 7.853 0 0 0-1.846-2.834 7.822 7.822 0 0 0-2.834-1.846c-1.02-.396-2.184-.666-3.886-.744-1.708-.076-2.25-.096-6.598-.096h.006H16Zm-1.434 2.884h1.436c4.272 0 4.778.014 6.464.092 1.56.07 2.408.332 2.972.55.746.29 1.28.638 1.84 1.198.56.56.906 1.092 1.196 1.84.22.562.48 1.41.55 2.97.078 1.686.094 2.192.094 6.462s-.016 4.778-.094 6.464c-.07 1.56-.332 2.406-.55 2.97a4.938 4.938 0 0 1-1.198 1.838c-.56.56-1.092.906-1.84 1.196-.56.22-1.408.48-2.97.552-1.686.076-2.192.094-6.464.094s-4.78-.018-6.466-.094c-1.56-.072-2.406-.332-2.97-.552a4.955 4.955 0 0 1-1.84-1.196 4.96 4.96 0 0 1-1.2-1.84c-.218-.562-.48-1.41-.55-2.97-.076-1.686-.092-2.192-.092-6.466 0-4.272.016-4.776.092-6.462.072-1.56.332-2.408.552-2.972.29-.746.638-1.28 1.198-1.84a4.943 4.943 0 0 1 1.84-1.196c.564-.22 1.41-.48 2.97-.552 1.476-.068 2.048-.088 5.03-.09v.004Zm9.976 2.656a1.92 1.92 0 1 0 0 3.841 1.92 1.92 0 0 0 0-3.841Zm-8.54 2.244a8.218 8.218 0 1 0-.256 16.433 8.218 8.218 0 0 0 .256-16.433Zm0 2.882a5.334 5.334 0 1 1 0 10.668 5.334 5.334 0 0 1 0-10.668Z" />
  </symbol>
  <symbol id="i-whatsapp" fill="currentColor" viewBox="0 0 22 22">
    <path fill="currentColor" d="M19.05 4.91A9.816 9.816 0 0 0 12.04 2c-5.46 0-9.91 4.45-9.91 9.91 0 1.75.46 3.45 1.32 4.95L2.05 22l5.25-1.38c1.45.79 3.08 1.21 4.74 1.21 5.46 0 9.91-4.45 9.91-9.91 0-2.65-1.03-5.14-2.9-7.01zm-7.01 15.24c-1.48 0-2.93-.4-4.2-1.15l-.3-.18-3.12.82.83-3.04-.2-.31a8.264 8.264 0 0 1-1.26-4.38c0-4.54 3.7-8.24 8.24-8.24 2.2 0 4.27.86 5.82 2.42a8.183 8.183 0 0 1 2.41 5.83c.02 4.54-3.68 8.23-8.22 8.23zm4.52-6.16c-.25-.12-1.47-.72-1.69-.81-.23-.08-.39-.12-.56.12-.17.25-.64.81-.78.97-.14.17-.29.19-.54.06-.25-.12-1.05-.39-1.99-1.23-.74-.66-1.23-1.47-1.38-1.72-.14-.25-.02-.38.11-.51.11-.11.25-.29.37-.43s.17-.25.25-.41c.08-.17.04-.31-.02-.43s-.56-1.34-.76-1.84c-.2-.48-.41-.42-.56-.43h-.48c-.17 0-.43.06-.66.31-.22.25-.86.85-.86 2.07 0 1.22.89 2.4 1.01 2.56.12.17 1.75 2.67 4.23 3.74.59.26 1.05.41 1.41.52.59.19 1.13.16 1.56.1.48-.07 1.47-.6 1.67-1.18.21-.58.21-1.07.14-1.18s-.22-.16-.47-.28z"/>
  </symbol>
  <symbol id="i-arrow-down" stroke="currentColor" viewBox="0 0 10 20">
    <path stroke-linecap="round" stroke-linejoin="round" stroke-width="2" d="m9 15-4 4m0 0-4-4m4 4V1" />
  </symbol>
  <symbol id="i-increase" xmlns="http://www.w3.org/2000/svg" stroke="currentColor" viewBox="0 0 21 12">
    <path stroke-linecap="round" stroke-linejoin="round" stroke-width="2"
      d="M11.75 1h8m0 0v8m0-8-8 8-4-4-6 6" />
  </symbol>
  <symbol id="i-click" xmlns="http://www.w3.org/2000/svg" stroke="currentColor" fill="none" viewBox="0 0 21 21">
    <path stroke="#3A3A3C" stroke-linecap="round" stroke-linejoin="round" stroke-width="2" d="m14.25 14.54-2 5-4-11 11 4-5 2Zm0 0 5 5M6.438 1.78l.777 2.897M4.386 7.505l-2.898-.777M13.2 3.59l-2.122 2.122m-5.657 5.656-2.12 2.122"/>
  </symbol>
</svg>