<svg xmlns="http://www.w3.org/2000/svg" fill="none" viewBox="0 0 281 258">
  <path fill="#F3F4F6" d="M41.701 119.481c-54.568 31.505-54.568 82.581 0 114.086 54.569 31.505 143.029 31.505 197.598 0 54.568-31.505 54.568-82.581 0-114.086-54.569-31.506-143.03-31.506-197.598 0Z"/>
  <path fill="#0D7464" d="M112.066 49.45a16.16 16.16 0 0 1-1.105 1.403c-.422.457-.878.878-1.405 1.282a10.4 10.4 0 0 1-1.737 1.053c-.65.316-1.352.561-2.142.772-1.07.263-2.088.369-3.036.298-.948-.07-1.808-.298-2.58-.702a5.815 5.815 0 0 1-1.966-1.614c-.544-.685-.93-1.51-1.176-2.475-.228-.93-.298-1.773-.21-2.528.105-.754.28-1.439.561-2.036a8.1 8.1 0 0 1 1-1.65c.387-.491.773-.947 1.106-1.386.351-.439.65-.843.878-1.246.228-.387.333-.79.298-1.211l-.263-2.809 3.124-.79 1.071 2.932c.228.561.263 1.088.14 1.58a4.807 4.807 0 0 1-.649 1.438c-.316.457-.667.93-1.071 1.387-.403.456-.772.948-1.105 1.457a5.807 5.807 0 0 0-.738 1.615c-.158.579-.158 1.193 0 1.895.106.44.299.825.544 1.124.264.316.562.544.913.737.351.175.755.28 1.211.316.439.035.913 0 1.387-.14.702-.176 1.281-.404 1.72-.685a7.005 7.005 0 0 0 1.106-.825c.298-.281.526-.527.719-.737.193-.211.386-.351.562-.386.439-.106.807 0 1.106.315l1.685 1.598.052.017Zm-8.477-18.851c.088.386.123.754.07 1.14a2.91 2.91 0 0 1-.351 1.036 2.48 2.48 0 0 1-.737.807 3.257 3.257 0 0 1-1.053.51 2.592 2.592 0 0 1-1.159.052 3.47 3.47 0 0 1-1.035-.368 2.53 2.53 0 0 1-.825-.738 2.818 2.818 0 0 1-.492-1.035 2.588 2.588 0 0 1-.052-1.159c.07-.368.193-.72.386-1.035.193-.316.439-.58.737-.808.298-.228.65-.386 1.053-.491.386-.105.79-.123 1.159-.07.368.052.719.175 1.035.35.316.176.579.422.807.738a2.9 2.9 0 0 1 .492 1.053l-.035.018Zm67.626-11.69c.456-.228.93-.421 1.439-.597a9.422 9.422 0 0 1 1.615-.386 8.43 8.43 0 0 1 1.773-.07c.614.035 1.281.14 1.966.333.93.246 1.755.615 2.439 1.071.702.456 1.264 1 1.668 1.632a5.17 5.17 0 0 1 .807 2.071c.123.755.07 1.545-.158 2.387-.211.808-.526 1.492-.913 2.019-.403.526-.825.965-1.298 1.316a6.843 6.843 0 0 1-1.475.825c-.509.21-.983.404-1.439.597a7.583 7.583 0 0 0-1.194.58 1.606 1.606 0 0 0-.737.789l-1 2.247-2.721-.72.422-2.686c.07-.526.263-.947.579-1.263a4.534 4.534 0 0 1 1.123-.825 10.32 10.32 0 0 1 1.404-.597 8.353 8.353 0 0 0 1.457-.65 4.715 4.715 0 0 0 1.246-.93c.369-.368.632-.842.79-1.456.105-.387.123-.755.053-1.088a2.513 2.513 0 0 0-.387-.948 2.717 2.717 0 0 0-.789-.755 4.354 4.354 0 0 0-1.124-.491c-.614-.159-1.141-.229-1.597-.211a5.62 5.62 0 0 0-1.193.158 20.66 20.66 0 0 0-.86.246c-.246.087-.439.105-.597.052-.386-.105-.614-.333-.702-.702l-.597-1.93v-.018Zm-1.562 17.99a2.37 2.37 0 0 1 .439-.895 2.46 2.46 0 0 1 .719-.632 2.57 2.57 0 0 1 .913-.316 2.247 2.247 0 0 1 1.018.07c.351.106.649.246.913.457.263.21.474.456.632.72.158.28.263.579.315.912a2.4 2.4 0 0 1-.052 1c-.088.352-.246.65-.457.913-.21.264-.456.474-.719.632a2.334 2.334 0 0 1-.913.299 2.416 2.416 0 0 1-1-.07 2.743 2.743 0 0 1-.913-.44 2.465 2.465 0 0 1-.632-.719 2.25 2.25 0 0 1-.298-.895 2.41 2.41 0 0 1 .07-1l-.035-.036Z"/>
  <path fill="#D1D5DB" d="M207.846 156.25c32.787 19.236 32.576 50.075-.492 68.838-33.067 18.78-86.459 18.394-119.246-.86-32.787-19.255-32.576-50.075.491-68.838 33.068-18.781 86.46-18.394 119.247.86Z"/>
  <path fill="#F5A261" d="M103.044 79.32c-15.13 8.742-37.052 29.418-37.052 66.715 0 37.298 17.622 65.029 51.374 77.421 10.812 3.966 25.538 5.687 39.615 5.002 16.182-.79 31.856-6.248 44.721-16.112 8.987-6.881 15.604-15.025 19.939-26.346 7.161-21.027-5.651-43.019-23.08-55.604-17.429-12.584-15.358-26.906-27.679-41.79-6.617-8.004-16.376-14.849-28.294-16.165-12.988-1.44-28.048.245-39.579 6.897l.035-.017Z"/>
  <path fill="#fff" d="M103.044 79.32c-15.13 8.742-37.052 29.418-37.052 66.715 0 37.298 17.622 65.029 51.374 77.421 10.812 3.966 25.538 5.687 39.615 5.002 16.182-.79 31.856-6.248 44.721-16.112 8.987-6.881 15.604-15.025 19.939-26.346 7.161-21.027-5.651-43.019-23.08-55.604-17.429-12.584-15.358-26.906-27.679-41.79-6.617-8.004-16.376-14.849-28.294-16.165-12.988-1.44-28.048.245-39.579 6.897l.035-.017Z" opacity=".6"/>
  <path fill="#F5A261" d="M211.883 177.717c5.529-5.845 7.828-14.586 5.898-22.414-1.387-5.564-4.88-10.548-9.531-13.883-5.09-3.651-11.584-4.985-17.06-8.021-13.287-7.355-15.867-15.393-27.416-45.372-1.457-3.773-3.054-7.038-4.757-9.864-4.826-2.966-10.32-5.072-16.393-5.757-12.988-1.439-28.048.246-39.579 6.898a73.564 73.564 0 0 0-11.268 8.074c-3.914 16.007-3.475 42.51.948 57.359 2.878 9.689 6.827 14.27 6.827 14.27-15.182-2.984-27.293 7.266-27.293 7.266 4.37-2.071 9.917-2.282 14.638-2.071 5.898.281 11.707 1.65 17.254 3.668 5.774 2.106 8.021 4.88 11.882 9.531a21.192 21.192 0 0 0 9.619 6.547c4.826 1.579 10.022 1.369 15.059 1.983 5.037.614 10.391 2.387 13.181 6.634 1.352 2.054 1.966 4.476 2.545 6.846l3.265 13.111c.474 1.895.965 3.844 2.071 5.458 2.843 4.16 9.425 4.722 13.357 1.58 1.86-1.492 3.177-3.598 5.125-4.967 3.739-2.598 8.46-1.79 12.672-1.264a40.04 40.04 0 0 0 7.091.246c.562-.404 1.141-.825 1.703-1.246 5.072-3.879 9.39-8.179 12.971-13.217-.86-.948-1.896-1.772-2.949-2.492-2.457-1.685-5.213-3.159-6.828-5.669-3.808-5.933 3.581-9.654 6.986-13.252l-.018.018Z" opacity=".3"/>
  <path fill="#F5A261" d="M171.601 226.405c-20.605 1.65-41.843-3.721-58.693-15.182-27.152-18.482-38.912-47.776-33.102-82.476 5.142-30.663 20.465-47.547 35.858-54.515-.86.228-1.703.474-2.563.737a51.16 51.16 0 0 0-2.474.842h-.053c-.807.299-1.615.615-2.405.948 0 0-.035 0-.052.018-.808.333-1.597.702-2.37 1.088-12.462 9.092-23.537 25.257-27.784 50.549-5.95 35.472 6.09 65.415 33.892 84.336 13.48 9.162 29.698 14.515 46.214 15.586a81.633 81.633 0 0 0 13.532-1.966v.035Z" opacity=".3"/>
  <path fill="#F8BBA7" d="M223.484 51.274c-.877-.246-1.843-.176-2.738.07-1.053.281-2.036.807-3.019 1.281a71.332 71.332 0 0 1-4.563 2.072c-1.369.561-2.844 1.21-4.353 1.193-.509 0-1.562-.175-.895-.825.877-.86 1.825-1.65 2.545-2.633.719-.983 1.176-2.246.912-3.44-.087-.35-.245-.72-.544-.93-.421-.298-.702-.088-1.035.175-.334.281-.72.492-1.088.72-.773.474-1.545.948-2.3 1.422-4.458 2.808-9.653 5.002-12.181 9.741-.368.684-1.404 3.861-2.404 9.39-1.001 5.529-5.353 19.904-5.353 19.904s-8.583-10.005-14.849-18.043c-2.598-3.335-6.178-6.53-11.426-8.46-3.335-1.229-6.863-1.896-6.863-1.896l6.248 27.1s14.954 15.954 23.52 22.677c7.722 6.055 12.444 3.51 13.901 1.299 2.404-3.669 4.493-5.213 5.985-27.75.123-1.737.21-3.492.333-5.23.386-3.616 1.422-7.161 2.949-7.705 2.791-.983 5.564-2.089 8.091-3.634 1.668-1.018 3.23-2.211 4.581-3.615.562-.597 1.51-1.44 1.738-2.23.228-.824.017-1.754.421-2.544.263-.527.737-.913.983-1.492.509-1.176.649-2.58 1.597-3.51.527-.51 1.334-.896 1.352-1.633.017-.579-.509-1.053-1.036-1.281a5.162 5.162 0 0 0-.474-.175l-.035-.018Z"/>
  <path fill="#F1997A" d="M186.468 89.396c-1.914 5.757-2.054 13.392-2.054 13.392s-2.106-8.793.298-15.463l1.756 2.071Zm19.746-31.277c-.948 2.914-3.739 6.248-5.389 7.249 0 0 2.616-.93 3.985-2.843 1.509-2.09 1.579-3.265 1.386-4.424l.018.018Z"/>
  <path fill="#E0E0E0" d="M153.348 60.173c8.81 2.053 12.461 3.422 16.639 8.003 4.177 4.581 16.709 20.15 16.709 20.15l.895-2.703s-.035 5.774 5.845 9.899c5.879 4.107 8.688 1.983 8.688 1.983s-.65 4.511-1.633 8.636c-.982 4.124-3.931 8.793-7.126 9.214-3.194.421-7.196-1.141-14.199-7.284-7.021-6.16-22.255-20.746-22.255-20.746l-3.546-27.152h-.017Z"/>
  <path fill="#000" d="M186.696 88.326c-1.176 3.686-3.107 10.443-.966 15.042-2.369-2.967-2.281-9.654-.245-16.552l1.211 1.492v.018Z" opacity=".1"/>
  <path fill="#F8BBA7" d="m177.955 178.472 8.443-13.585 13.778 9.758-19.746 19.57s-8.793-1.597-9.829-6.353c-1.018-4.757 4.757-8.074 7.337-9.408l.017.018Z"/>
  <path fill="#263239" d="M167.249 183.159c-.93.526-1.545 1.211-2.212 2.018-.666.807-.842 5.037-1.579 6.933s-1.211 2.387-2.352 4.756c-1.264 2.616-3.405 4.933-1.843 12.094 1.58 7.248 4.721 10.776 7.495 12.742 1.456 1.036 3.44 1.159 3.44 1.159s3.949-1.106 3.563-3.423c-.386-2.317-6.53-36.279-6.53-36.279h.018Z"/>
  <path fill="#455A64" d="M183.361 192.268c-.176.702-1.264 1.72-1.72 2.281-1.545 1.843-2.405 4.459-3.089 6.758-3.212 10.829.684 16.814-5.617 20.43-1.808.93-5.353.316-10.162-7.091-2.457-3.791-3.405-11.233-2.036-14.445 1.369-3.212 3.036-5.23 3.949-7.723.913-2.474.965-7.249 2.563-9.32.93-1.211 2.351-2.001 3.703-2.667 1.106-.545 3.493-1.194 4.616-1.703 1.211-.562 1.773-1.158 2.405-.316l-1.369 1.422c-2.177 2.51-1.668 2.948-1.738 4.37-.088 1.492-.72 3.019-1.123 4.476 1.527-1.615 2.229-3.089 3.703-2.686 1.387.369 1.667.334 3.633 2.545 1.984 2.212 2.44 3.037 2.3 3.669h-.018Z"/>
  <path fill="#37474F" d="M162.755 214.629c-2.457-3.791-3.405-11.233-2.036-14.445.492-1.158 1.036-2.159 1.545-3.089-.07.211-.158.439-.193.632-.106.421-.193.843-.281 1.281-.298 1.65-.456 3.44.105 5.055.509 1.422 1.65 5.002 3.493 5.248 1.053.141 2.019-.807 2.528-1.948.21-.474.614-1.79.614-1.79s2.685.825 4.651 2.387c2.545 2.018 2.405 2.404 2.405 2.404-.158.597-.387 1.615-.299 2.352.088.737.386 1.949.79 2.44.193.246.421.439.632.614-.334 2.528-1.176 4.476-3.809 5.985-1.808.931-5.353.316-10.162-7.09l.017-.036Z"/>
  <path fill="#37474F" d="M178.552 201.289c-1 3.352-1.316 6.248-1.457 8.758-1.263 2.738-2.141 2.58-2.141 1.106s2.492-7.372 4.37-12.269c-.298.808-.544 1.633-.789 2.405h.017Zm-5.178-18.272c-.035-1.386.509-2.773 1.44-3.949.28-.105.526-.21.737-.298 1.211-.562 1.772-1.159 2.404-.316l-1.369 1.422c-2.176 2.509-1.667 2.948-1.737 4.37-.088 1.492-.72 3.019-1.124 4.476-1.544 4.686-2.703 6.195-3.633 10.671-.93 4.476-.281 7.6-.948 7.793-.667.193-1.913-.421-1.825-4.072.088-3.651 2.212-9.601 3.598-12.391 1.387-2.791 2.528-5.793 2.457-7.741v.035Z"/>
  <path fill="#EBEBEB" d="M168.197 205.834s.123.123.228.14c3.124.93 4.739 1.878 6.863 4.862a.468.468 0 0 0 .632.105c.21-.14.245-.421.105-.632-2.247-3.159-4.019-4.212-7.337-5.212a.453.453 0 0 0-.561.298c-.053.158 0 .298.087.421l-.017.018Zm.912-3.719s.123.123.211.14c3.212 1.053 4.967 2.141 7.214 5.283.175.228.438.263.649.106a.458.458 0 0 0 .105-.65c-2.369-3.317-4.265-4.528-7.687-5.634a.447.447 0 0 0-.58.298.49.49 0 0 0 .088.439v.018Zm.281-4.161s.14.123.228.158c3.545 1.159 5.581 2.458 8.056 5.933a.527.527 0 0 0 .72.123.527.527 0 0 0 .123-.72c-2.616-3.651-4.809-5.09-8.583-6.319a.513.513 0 0 0-.65.334.603.603 0 0 0 .088.491h.018Zm.912-3.51s.141.123.229.158c3.475 1.124 5.441 2.387 7.88 5.792a.521.521 0 0 0 .702.123.504.504 0 0 0 .123-.702c-2.562-3.58-4.704-4.967-8.39-6.178a.496.496 0 0 0-.631.316.553.553 0 0 0 .087.474v.017Zm1.598-3.335s.14.123.228.158c3.475 1.141 5.441 2.387 7.881 5.81a.505.505 0 0 0 .702.123.505.505 0 0 0 .122-.702c-2.562-3.581-4.703-4.967-8.389-6.178a.497.497 0 0 0-.632.316.547.547 0 0 0 .088.473Z"/>
  <path fill="#F8BBA7" d="m181.764 179.946 8.741 8.495 5.019 3.808-7.073 10.935-16.376-9.671 9.689-13.567Z"/>
  <path fill="#455A64" d="M167.091 126.956s34.7-2.685 49.338-1.316c14.936 1.404 15.34 12.725 11.005 19.272-8.302 12.532-35.613 38.245-35.613 38.245s-8.021-4.564-9.969-12.006l6.81-12.514-18.359 4.16-8.583-6.916-.333-4.721 5.721-24.204h-.017Z"/>
  <path fill="#455A64" d="m167.091 126.957-60.08 4.704s-1.825 14.129 2.65 27.31c3.844 11.321 13.182 17.008 20.676 18.851 7.881 1.93 17.798 3.019 17.798 3.019s4.335 4.036 8.881 6.318 24.414 12.725 24.414 12.725 6.214-4.405 6.53-14.673l-17.675-22.414c-3.932-5.757-5.336-7.617-7.67-9.056 4.002-15.253 4.195-18.746 4.476-26.784Z"/>
  <path fill="#37474F" d="M167.653 159.059c1.79 2.51 2.65 3.721 2.65 3.721l2.949-.685s-4.581-5.95-7.6-9.144c-3.3-3.493-8.021-4.09-12.602-3.721-5.81.456-22.66 1.843-22.66 1.843s16.043-.053 24.345.351c8.302.404 11.145 5.125 12.935 7.635h-.017Z"/>
  <path fill="#37474F" d="M163.756 136.592c-.351 5.827-4.055 12.339-6.196 14.042l3.44 1.562s4.16-7.881 2.756-15.604Zm28.838 11.216c-4.213 5.231-6.916 9.162-8.636 11.883l4.687-1.053c6.213-11.813 7.582-15.288 16.305-20.308 0 0-6.09 1.703-12.356 9.478Zm-48.233 25.767s2.721 4.791 12.444 9.952c5.459 2.896 22.431 11.303 27.644 13.023-1.544 2.264-3.036 3.317-3.036 3.317s-19.869-10.443-24.415-12.725a29.216 29.216 0 0 1-2.878-1.667c-.404-.264-.807-.527-1.194-.808-1-.702-1.913-1.404-2.667-2.018-.755-.614-1.334-1.123-1.72-1.439-.194-.158-.316-.281-.387-.334l-.052-.052c-4.107-4.248-3.774-7.249-3.774-7.249h.035Z"/>
  <path fill="#263239" d="M216.552 200.095c3.879 1.93 6.23 3.756 7.88 6.336 1.65 2.597 2.001 5.107-.017 7.898-2.019 2.791-5.564 5.968-9.408 5.406-3.826-.562-6.125-1.72-9.531-3.984l11.076-15.656Z"/>
  <path fill="#455A64" d="M184.098 200.709c-.158 1.193 4.704 4.054 9.776 7.021 5.424 3.194 6.67 5.072 11.093 7.74 5.055 3.054 7.038 3.387 11.233 2.598 4.195-.773 9.759-6.196 6.705-11.9-2.492-4.652-6.108-6.179-11.619-8.162-5.705-2.036-8.706-3.388-12.831-5.424-3.931-1.93-7.038-5.072-7.968-4.159.562.333 4.598 3.335 3.721 3.984-.228.351-.825.175-1.843-.334-.439-.228-.965-.386-1.457-.193-.491.193-.86.702-1.158 1.176-.755 1.159-.913 1.896-1.562 3.125-.387.719-.211.298-.58 1.018-.403.807-1.14 2.036-1.123 2.808 0 .474.334.649.667.913.334.263.825.579 1.141.86.123.122.333.491.246.649-.158.281-.878.088-1.176-.07-.351-.193-.79-.334-1.159-.492-.351-.158-1.228-.649-2.123-1.176l.017.018Z"/>
  <path fill="#37474F" d="M203.23 214.452c.719.457 5.318 3.089 6.95 1.896 1.755-1.299-1.895-3.949-1.895-3.949s-.264-3.669 4.563-8.601c.702.65 3.861.895 3.984-.965.123-1.843-4.967-4.599-5.037-4.634 5.283 1.913 8.723 3.476 11.145 7.986 3.054 5.705-2.51 11.128-6.704 11.9-4.195.773-6.196.457-11.234-2.597-.509-.299-1.298-.72-1.737-1.036h-.035Z"/>
  <path fill="#37474F" d="M208.829 212.066c1.948.842.404 2.545-2.457 1.702-4.318-1.264-7.741-4.072-12.48-6.038-5.055-2.983-10.232-5.792-9.776-7.091.913.439 2.861 1.457 2.861 1.457.386.211 1.369.667 1.369.667 3.844 2.071 8.039 5.248 12.269 6.793 3.721 1.369 6.283 1.685 8.231 2.527l-.017-.017Zm3.65-7.617c-1.738-1.211-1.983-2.141-5.423-4.107-3.423-1.948-9.197-6.02-12.76-8.53-1.124-.737-3.774-3.335-3.809-3.37.684-.649 2.913.193 5.072 1.843 2.159 1.632 3.475 2.685 5.634 4.054 4.178 3.037 9.039 5.248 11.409 7.091 2.369 1.843 1.597 4.23-.14 3.019h.017Z"/>
  <path fill="#F0F0F0" d="M212.795 203.974s-.07.105-.122.158c-.035.035-3.177 2.931-4.195 8.548-.053.281-.299.474-.544.456-.246-.017-.404-.263-.369-.544 1.088-6.02 4.37-9.039 4.564-9.197.21-.193.491-.176.649.035.123.158.123.369.017.562v-.018Zm-3.316-2.897s-.071.105-.106.14c-.035.036-3.844 3.879-5.142 10.075-.071.281-.299.474-.562.439-.246-.035-.404-.281-.351-.562 1.387-6.547 5.283-10.496 5.476-10.671.193-.193.492-.193.649 0 .123.158.123.386.036.561v.018Zm-8.706 9.548a.507.507 0 0 1-.457.281c-.245 0-.438-.245-.403-.509.772-6.389 5.423-12.04 5.634-12.233.21-.193.491-.176.649.035a.543.543 0 0 1-.105.702c-.053.035-4.546 5.564-5.266 11.514 0 .07-.035.14-.07.21h.018Zm-3.107-2.386a.501.501 0 0 1-.439.281c-.263 0-.439-.229-.404-.509.738-7.074 5.617-11.391 5.828-11.567.21-.176.509-.14.631.088.141.21.071.544-.14.702-.053.035-4.704 4.212-5.406 10.794 0 .07-.035.158-.07.211Z"/>
  <path fill="#EBEBEB" d="M193.577 206.081c-.088.158-.264.281-.439.281-.246 0-.439-.228-.421-.491.614-6.67 5.739-11.409 5.967-11.602.211-.176.492-.141.632.07.141.211.088.527-.123.702-.052.053-5.002 4.634-5.564 10.83a.5.5 0 0 1-.07.228l.018-.018Z"/>
  <path fill="#263239" d="M163.493 82.464c.597-15.972-2.615-20.676-10.601-22.273l-13.199-2.563c-4.02.456-21.817 6.775-26.539 7.968-3.036.773-4.844 6.916-6.336 16.657-1.211 7.916-1.106 14.234-1.79 25.257-.579 9.25.158 24.256 1.843 37.315 25.222 9.583 56.71-5.283 59.693-17.376-.737-3.37-5.564-9.075-5.634-15.744 1.615-13.814 2.37-24.24 2.545-29.259l.018.018Z"/>
  <path fill="#EBEBEB" d="m112.891 65.21 14.147-5.67s1.369 4.354 4.511 12.708c3.159 8.355 2.966 12.006 2.106 26.03-.86 14.023-2.018 29.065 3.405 49.495-6.599.895-15.586 2.44-31.172-1.72 0 0-1.702-14.164-1.509-39.912.105-14.358 1.158-37.49 8.512-40.931Zm32.682-5.212c5.476 2.703 9.074 9.355 9.653 18.166.579 8.81-.263 31.102.105 37.754.369 6.652 6.389 19.658 6.389 19.658s4.371-3.458 6.775-8.741c-2.843-4.441-5.301-10.496-5.371-16.025-.07-5.511 1.949-22.905 1.703-29.662-.246-6.74-.141-16.025-7.793-19.799-3.3-1.632-11.268-2.843-11.268-2.843l-.193 1.51v-.018Z"/>
  <path fill="#FBFBFB" d="M155.384 83.235c-.211-6.459-2.861-18.236-9.583-21.167-.334-.895-.228-2.071-.228-2.071l.351-3.317s2.843 1.21 5.651 3.405c2.826 2.194 7.442 8.828 8.337 13.918-2.773-2.808-4.335 1.229-4.528 9.232Z"/>
  <path fill="#37474F" d="M125.792 20.962s-2.931.123-4.985 3.739c-1.035 1.825-1.843 5.178.439 14.937 1.475 6.283 3.405 9.074 4.265 10.846.843 1.773 2.703 2.317 2.703 2.317l.088-7.442-.088-5.195s4.318-3.633 4.809-7.337c.632-4.774-1.123-7.547-1.123-7.547l-6.073-4.318h-.035Z"/>
  <path fill="#37474F" d="M124.773 21.172c.878-4.16 6.354-8.934 16.604-9.109 8.39-.14 13.182 2.914 15.92 7.916 2.738 4.985.579 11.25.579 11.25l-26.257-2.685-6.846-7.354v-.018Z"/>
  <path fill="#F8BBA7" d="M121.404 47.29c3.791 2.019 5.651-.965 5.651-.965v16.71c7.004 10.162 26.89 6.915 19.062-.79l.14-4.704s1.299 0 3.352-.229c3.423-.421 6.319-2.703 7.477-6.353 1.703-5.406 1.949-14.182.229-23.555-.334-1.808-1.036-3.791-2.651-4.669-4.019-2.176-7.916.597-13.69 2.616-2.387.825-8.144 1.035-9.618.263 1.913 2.264.544 7.916-.053 9.688-.86 2.563-2.001 3.792-2.545 3.88-2.352.403-2.545-1.615-3.563-2.739-1.018-1.123-4.915-2.246-6.74 1.3-1.843 3.615-.562 7.704 2.931 9.582l.018-.035Z"/>
  <path fill="#F1997A" d="M131.847 52.59c.667 3.809 5.687 6.477 14.34 7.003l.07-2.053s-2.65-.07-6.336-.808c-4.037-.825-8.074-4.142-8.074-4.142Z"/>
  <path fill="#37474F" d="m137.306 31.492 3.65-1.86c.492 1.053.071 2.317-.93 2.826-1.018.509-2.229.087-2.72-.966Zm14.831-5.335 3.335 2.44a2.005 2.005 0 0 1-2.844.509c-.93-.667-1.141-2.001-.509-2.949h.018Z"/>
  <path fill="#263239" d="M139.131 35.671c-.052.93.667 1.703 1.597 1.755.931.053 1.703-.667 1.756-1.597a1.684 1.684 0 0 0-1.598-1.755c-.93-.053-1.702.667-1.755 1.597Zm13.041-.544c-.053.93.667 1.703 1.597 1.755.93.053 1.703-.666 1.755-1.597a1.684 1.684 0 0 0-1.597-1.755c-1.053-.053-1.703.527-1.755 1.597Z"/>
  <path fill="#F1997A" d="m146.134 32.055.14 10.934 6.091-1.351c-1.194-4.353-4.09-7.407-6.249-9.583h.018Z"/>
  <path fill="#B26668" d="M144.362 47.378s-.141-.088-.211-.123l-.158-.053h.035c-.052-.017-.123-.052-.175-.035-.018 0-.035 0-.053.035 0 .018-.017.035-.017.07 0 .053.017.123.07.158.07.053.14.088.228.123.07.035.123.053.193.088.035 0 .088.018.105 0l.018-.017a.193.193 0 0 0 .035-.106.16.16 0 0 0-.053-.123l-.017-.017Zm1.492-.527a4.174 4.174 0 0 0-.439-.333 5.141 5.141 0 0 0-.983-.492 7.01 7.01 0 0 0-1.036-.298c-.351-.07-.789-.158-1.14-.053-.264.07-.053.386.105.439.404.123.842.105 1.264.228.316.088.649.21.947.351.299.14.597.316.878.492.158.105.333.193.491.298.053.035.123.105.211.105.105 0 .123-.052.105-.14-.017-.21-.263-.439-.403-.58v-.017Z"/>
  <path fill="#FBFBFB" d="M134.199 85.693c-.457-12.69-6.477-9.987-8.039-5.968-3.967-7.23-3.37-16.2-3.089-18.534 1.439-2.054 1.65-2.492 2.299-3.51.843-1.334.966-1.615 1.685-1.843v3.703s1.018 2.492 4.371 7.424c2.457 3.634 3.054 8.057 2.79 18.71l-.017.018Z"/>
  <path fill="#F8BBA7" d="M59.305 47.554c.913-.106 1.843.122 2.686.509 1 .456 1.878 1.123 2.755 1.755a66.083 66.083 0 0 0 4.16 2.79c1.264.79 2.598 1.668 4.107 1.896.51.07 1.58.088 1.018-.667-.72-.983-1.527-1.93-2.07-3.019-.545-1.088-.79-2.404-.334-3.545.14-.334.35-.667.684-.825.474-.228.72.035.983.333.28.316.632.597.965.878.685.597 1.37 1.176 2.036 1.79 3.932 3.493 8.689 6.53 10.409 11.62.245.737.737 4.054.825 9.653.087 5.617 1.895 18.763 1.895 18.763s2.527-3.195 8.583-11.391c5.564-7.512 7.319-10.426 12.128-11.97 2.177-.703 4.564-1.247 5.318-1.44 4.02 4.757 1.545 21.15-6.02 29.189 0 0-10.689 13.128-19.36 20.026-7.67 6.108-12.707 2.51-13.778.088-1.772-4.002-4.44-8.004-2.211-30.47.158-1.737.35-3.475.544-5.213.21-3.633-.228-7.301-1.632-8.073-2.598-1.422-5.143-2.984-7.39-4.915-1.474-1.264-2.825-2.703-3.914-4.318-.456-.684-1.263-1.667-1.351-2.492-.088-.843.263-1.738 0-2.58-.176-.562-.562-1.036-.72-1.632-.298-1.23-.21-2.65-1-3.721-.439-.58-1.159-1.106-1.07-1.843.07-.58.666-.948 1.228-1.089a4.28 4.28 0 0 1 .509-.087h.017Z"/>
  <path fill="#F1997A" d="M89.442 89.502c.93 6.002.053 14.357.053 14.357s3.37-10.162 2.089-17.13l-2.142 2.79v-.017ZM75.225 57.154c.456 3.02 2.65 6.793 4.125 8.04 0 0-2.44-1.352-3.476-3.459-1.14-2.299-1.018-3.475-.65-4.58Z"/>
  <path fill="#E0E0E0" d="M115.893 64.016c-3.984 1-7.688 2.001-9.777 3.616-2.071 1.615-3.44 3.51-6.459 7.618-3.019 4.09-10.04 13.198-10.04 13.198l-1.052-5.704s.158 3.475-3.388 6.512c-3.563 3.036-10.39 4.353-11.988 2.141 0 0-.737 8.811 0 14.164.738 5.354 3.107 10.145 4.687 11.778 1.58 1.632 4.546 1.79 9.846-1.124 5.283-2.913 14.077-12.461 17.517-16.463 3.458-4.002 6.143-6.442 7.635-8.916 1.492-2.475 8.846-17.763 2.984-26.802l.035-.018Z"/>
  <path fill="#000" d="M89.635 88.43c1.053 4.968.965 11.918-.632 15.973 3.598-6.6 2.879-14.182 2.141-17.92l-1.509 1.947Z" opacity=".1"/>
  <path fill="#D54431" d="m190.645 6.57 2.387-2.65c.053-.053.088-.089.14-.124l5.073-3.58c.491-.351 1.228-.263 1.632.193l25.485 28.381 6.371 7.108a1.049 1.049 0 0 1 0 1.475s-2.018 2.264-2.404 2.65l-.053.053-4.616 4.09a1.108 1.108 0 0 1-1.562-.088c-4.985-5.547-27.486-30.628-32.471-36.175-.368-.403-.351-.965.018-1.333Z"/>
  <path fill="#D85746" d="m190.645 6.57 2.387-2.65a.9.9 0 0 1 .14-.123l5.073-3.58c.298-.211.702-.264 1.053-.176l-8.372 8.179c-.106-.123-.211-.228-.299-.334-.368-.403-.351-.965.018-1.334v.018Z"/>
  <path fill="#E17C6F" d="m190.785 6.447 5.055-3.563c.492-.351 1.229-.264 1.632.193l25.486 28.38 6.371 7.11a1.05 1.05 0 0 1-.053 1.526l-4.616 4.09a1.108 1.108 0 0 1-1.562-.088c-4.985-5.546-27.486-30.628-32.471-36.174-.403-.456-.333-1.106.158-1.457v-.017Z"/>
  <path fill="#D54431" d="M233.067 10.624 219.78 22.559l-5.019-.281-6.196 5.581 2.369 2.65-6.231 5.6-7.108 6.37a1.065 1.065 0 0 1-1.474 0s-2.264-2.017-2.651-2.386l-.052-.053-4.107-4.616a1.109 1.109 0 0 1 .087-1.562c5.547-4.985 30.628-27.504 36.174-32.47.404-.37.966-.352 1.334.017.035.035 2.651 2.387 2.651 2.387.052.053.087.088.123.14l3.563 5.055a1.284 1.284 0 0 1-.194 1.65l.018-.017Z"/>
  <path fill="#D85746" d="m226.907 1.392 2.65 2.387a.859.859 0 0 1 .123.14l3.563 5.055c.211.299.264.702.176 1.053l-8.179-8.372c.123-.105.228-.21.333-.298.404-.369.966-.351 1.334.017v.018Z"/>
  <path fill="#E17C6F" d="m227.03 1.532 3.563 5.055c.351.491.263 1.228-.193 1.632l-28.381 25.485-7.109 6.371a1.05 1.05 0 0 1-1.527-.052l-4.089-4.616a1.109 1.109 0 0 1 .087-1.562c5.547-4.985 30.628-27.486 36.174-32.471.457-.404 1.106-.334 1.457.158h.018Z"/>
  <path fill="#56A79A" d="m94.374 7.834-2.58-2.475c-.053-.035-.106-.088-.158-.105l-5.301-3.195a1.267 1.267 0 0 0-1.615.299L63.992 29.212l-8.337-6.354c-.492-.368-1.194-.298-1.58.176l-5.511 6.389a1.052 1.052 0 0 0 .123 1.474c.017 0 2.176 2.106 2.58 2.475l.052.052L65.835 44.5c.491.37 1.175.281 1.544-.21 4.563-5.9 22.572-29.242 27.135-35.14.334-.42.263-.983-.123-1.334l-.017.018Z"/>
  <path fill="#86C0B7" d="m94.374 7.834-2.58-2.475c-.052-.035-.105-.088-.158-.105l-5.3-3.195c-.316-.193-.72-.21-1.071-.088l8.951 7.53c.106-.123.193-.246.281-.35.334-.422.263-.984-.123-1.335v.018Z"/>
  <path fill="#CFE6E2" d="m94.234 7.728-5.3-3.194a1.267 1.267 0 0 0-1.616.298L66.59 31.686l-8.337-6.354c-.492-.368-1.194-.298-1.58.176l-5.511 6.389a1.038 1.038 0 0 0 .175 1.51L65.853 44.48a1.095 1.095 0 0 0 1.544-.21c4.564-5.897 22.573-29.24 27.135-35.138a.967.967 0 0 0-.263-1.439l-.035.035Z"/>
  <path fill="#86C0B7" d="m63.974 29.211 2.58 2.475-8.32-6.354a1.107 1.107 0 0 0-.825-.228l-2.58-2.475c.281-.035.58.035.825.229l8.337 6.353h-.017Z"/>
  <path fill="#F5A261" d="M224.116 70.282c3.528-2 8.389-1.702 13.743 1.405 10.794 6.23 19.535 21.378 19.535 33.839 0 6.231-2.177 10.602-5.722 12.638-1.474.842-5.195 2.983-6.67 3.843-3.528 2.036-8.407 1.738-13.795-1.369-10.795-6.23-19.535-21.378-19.535-33.84 0-6.213 2.176-10.583 5.686-12.619 1.475-.86 5.248-3.037 6.74-3.879l.018-.017Z"/>
  <path fill="#000" d="M256.675 99.05c.456 2.194.719 4.37.719 6.477 0 6.23-2.176 10.601-5.721 12.637-1.475.842-5.196 2.984-6.67 3.844-3.528 2.036-8.407 1.737-13.796-1.369-1.808-1.054-3.563-2.352-5.23-3.844l30.698-17.728v-.017Z" opacity=".15"/>
  <path fill="#F5A261" d="M217.376 106.018c-3.528-6.126-5.722-13.024-5.722-19.237 0-12.462 8.741-17.5 19.535-11.286 10.795 6.231 19.535 21.378 19.535 33.84 0 12.462-8.74 17.499-19.535 11.286-2.703-1.562-5.283-3.686-7.635-6.196l-7.968 1.457c-1.018.193-1.843-.825-1.457-1.773l3.23-8.091h.017Z"/>
  <path fill="#fff" d="M217.376 106.018c-3.528-6.126-5.722-13.024-5.722-19.237 0-12.462 8.741-17.5 19.535-11.286 10.795 6.231 19.535 21.378 19.535 33.84 0 12.462-8.74 17.499-19.535 11.286-2.703-1.562-5.283-3.686-7.635-6.196l-7.968 1.457c-1.018.193-1.843-.825-1.457-1.773l3.23-8.091h.017Z" opacity=".35"/>
  <path fill="#FBFBFB" d="M227.977 104.895a1.068 1.068 0 0 1-.421-.456c-.105-.211-.175-.351-.211-.457l-3.527-10.127v8.003c0 .176-.036.299-.123.387-.088.087-.176.087-.299.017l-2.018-1.158a.88.88 0 0 1-.299-.351 1.166 1.166 0 0 1-.122-.527V84.939c0-.176.035-.299.122-.386.088-.07.176-.088.299-.018l1.597.93c.176.105.316.246.421.456.106.211.176.351.211.457l3.528 10.127v-8.003c0-.176.035-.299.123-.386.087-.088.175-.088.298-.018l2.019 1.158c.105.07.21.193.298.351.088.176.123.351.123.527v15.287c0 .176-.035.299-.123.387-.088.087-.176.087-.298.017l-1.598-.93Zm3.827-8.197c.035-.86.158-1.632.368-2.282.229-.65.527-1.158.931-1.492.403-.333.895-.509 1.474-.526.579 0 1.246.21 2.001.65a7.557 7.557 0 0 1 2.001 1.667c.579.684 1.07 1.421 1.492 2.229.403.807.719 1.667.93 2.58.228.913.351 1.808.368 2.72.018.685.036 1.404.036 2.142 0 .737 0 1.421-.036 2.071-.035.86-.157 1.632-.368 2.281-.228.65-.527 1.159-.93 1.51-.404.351-.895.526-1.492.509-.579 0-1.246-.228-2.001-.649a7.843 7.843 0 0 1-2.001-1.65 10.217 10.217 0 0 1-1.474-2.229 12.05 12.05 0 0 1-.931-2.598 12.057 12.057 0 0 1-.368-2.721 75.928 75.928 0 0 1-.035-2.106c0-.755 0-1.439.035-2.106Zm6.757 7.986c0-.281.018-.579.035-.93v-2.124c0-.351-.017-.649-.035-.93a6.265 6.265 0 0 0-.158-1.176 5.14 5.14 0 0 0-.368-1.07 3.994 3.994 0 0 0-.597-.931 2.817 2.817 0 0 0-.825-.685c-.316-.175-.597-.263-.825-.263a.837.837 0 0 0-.597.246 1.532 1.532 0 0 0-.368.65 3.94 3.94 0 0 0-.158 1 12.84 12.84 0 0 0-.035.895v2.124c0 .351.017.667.035.965.035.807.21 1.562.526 2.264.316.702.79 1.229 1.422 1.597.632.369 1.106.386 1.422.035.316-.351.491-.895.544-1.649l-.018-.018Z"/>
  <path fill="#F5A261" d="M50.565 76.584c-3.528-2-8.39-1.703-13.743 1.404-10.794 6.231-19.535 21.378-19.535 33.84 0 6.231 2.176 10.601 5.722 12.637 1.474.843 5.195 2.984 6.67 3.844 3.527 2.036 8.407 1.738 13.795-1.369 10.794-6.231 19.535-21.378 19.535-33.84 0-6.213-2.176-10.584-5.687-12.62a841.752 841.752 0 0 0-6.74-3.878l-.017-.018Z"/>
  <path fill="#000" d="M18.007 105.35c-.457 2.194-.72 4.37-.72 6.477 0 6.231 2.176 10.601 5.722 12.637 1.474.842 5.195 2.984 6.67 3.844 3.527 2.036 8.407 1.737 13.795-1.369 1.808-1.053 3.563-2.352 5.23-3.844l-30.697-17.727v-.018Z" opacity=".15"/>
  <path fill="#F5A261" d="M63.009 93.1c0 5.371-1.58 10.847-3.879 15.726-.175.387-.369.79-.58 1.176-2.737 5.371-6.37 10.233-10.969 14.042-10.268 9.056-23.8 7.196-23.642-8.407.035-6.266 2.088-12.567 5.072-18.079a45.625 45.625 0 0 1 6.828-9.548l.017-.035c9.601-11.057 26.907-13.848 27.135 5.125h.018Z"/>
  <path fill="#F5A261" d="m54.48 82.604 11.864-6.705c.755-.421 1.633.333 1.317 1.14l-6.653 17.043-6.529-11.478Z"/>
  <path fill="#fff" d="m66.344 75.9-8.565 4.843c-5.933-3.738-15.586-.052-21.923 7.232l-.017.035c-2.317 2.492-4.423 5.353-6.196 8.407-.21.386-.421.755-.632 1.14-2.966 5.512-5.037 11.813-5.072 18.079-.158 15.604 13.374 17.464 23.642 8.407 4.599-3.808 8.232-8.67 10.97-14.041.193-.386.386-.772.58-1.176 2.298-4.879 3.86-10.338 3.878-15.726a23.28 23.28 0 0 0-.263-3.458l4.914-12.584c.316-.808-.561-1.563-1.316-1.141v-.018Z" opacity=".35"/>
  <path fill="#FBFBFB" d="M34.874 118.128c0 .175-.035.351-.123.526-.088.176-.176.299-.298.352l-2.019 1.158c-.105.07-.21.053-.298-.018-.088-.07-.123-.21-.123-.386v-5.037l-3.546-8.004s-.07-.175-.07-.281c0-.14.035-.28.106-.421.07-.14.14-.246.245-.298l2.106-1.211c.211-.123.351-.123.457-.035.105.105.158.175.175.245l1.931 4.704 1.948-6.95c.018-.088.088-.246.193-.457.106-.21.264-.386.457-.509l2.106-1.211c.088-.052.175-.052.245 0 .07.053.106.176.106.316 0 .088-.018.211-.053.351l-3.545 12.111v5.055Zm12.637-10.442c.105-.071.21-.053.298.017.088.088.123.211.123.386v2.51c0 .176-.035.351-.123.527-.087.175-.175.298-.298.351l-7.284 4.212c-.105.07-.21.053-.298-.017-.088-.071-.123-.211-.123-.386V99.998c0-.176.035-.351.123-.527.087-.175.175-.298.298-.35l7.161-4.143c.105-.07.21-.052.299.018.087.088.123.21.123.386v2.51c0 .175-.036.35-.123.526-.088.176-.176.299-.299.351l-4.739 2.738v2.563l4.406-2.545c.105-.07.21-.053.298.018.088.087.123.21.123.386v2.51c0 .175-.035.351-.123.526-.088.176-.175.298-.298.351l-4.406 2.545v2.65l4.862-2.808v-.017ZM53.707 91.1c.65-.387 1.263-.58 1.808-.598.544-.017 1.018.07 1.421.299.404.228.72.544.93.965.229.421.352.878.352 1.387 0 .14-.036.28-.106.42-.07.141-.14.229-.228.282l-2.018 1.158c-.14.088-.264.123-.351.105-.088 0-.176-.052-.264-.122-.035-.036-.087-.088-.14-.158a.858.858 0 0 0-.281-.176c-.123-.053-.28-.053-.456-.035-.193.017-.404.105-.685.263a3.98 3.98 0 0 0-.562.386c-.175.14-.333.299-.473.457-.14.158-.246.35-.334.561a1.73 1.73 0 0 0-.123.667c0 .228.053.404.14.51.088.105.264.157.492.157.228 0 .544-.052.913-.14.386-.088.842-.21 1.422-.369a4.73 4.73 0 0 1 1.474-.193 1.66 1.66 0 0 1 1.053.404c.28.246.491.597.632 1.053.14.456.21 1.07.21 1.808a8.12 8.12 0 0 1-.35 2.352 8.824 8.824 0 0 1-1.001 2.194 9.297 9.297 0 0 1-1.51 1.895 9.388 9.388 0 0 1-1.895 1.457c-.702.404-1.334.632-1.913.667-.58.035-1.07-.035-1.492-.263-.421-.228-.737-.562-.983-1.018-.228-.439-.351-.966-.369-1.562 0-.141.035-.281.106-.422.07-.14.14-.228.228-.28l2.018-1.159c.14-.088.264-.123.334-.105.088 0 .158.035.246.105l.193.193c.087.088.193.176.333.246s.316.105.527.088c.21 0 .474-.106.772-.281a6.14 6.14 0 0 0 1.369-1.053c.369-.386.544-.825.544-1.299 0-.228-.07-.404-.193-.474-.14-.088-.334-.105-.597-.088a5.97 5.97 0 0 0-1.018.193c-.421.106-.912.246-1.474.369-1.053.263-1.825.123-2.317-.404-.491-.526-.737-1.474-.737-2.826 0-.684.105-1.386.298-2.106a9.338 9.338 0 0 1 .878-2.141c.386-.684.842-1.334 1.369-1.913a7.943 7.943 0 0 1 1.808-1.457Z"/>
</svg>