<svg xmlns="http://www.w3.org/2000/svg" fill="none" viewBox="0 0 281 182">
  <path fill="#F3F4F6" d="M258.189 173.388c6.147-4.691 11.551-10.191 15.595-16.775 8.202-13.395 9.156-32.241-1.359-43.889-11.696-12.942-31.788-12.586-49.146-10.871-17.358 1.715-37.111 3.074-49.891-8.8-10.418-9.69-12.634-25.123-13.702-39.31-1.067-14.188-1.973-29.427-10.822-40.557-11.907-14.98-35.865-16.792-51.994-6.487-16.128 10.305-24.54 30.09-24.735 49.227-.08 8.186.421 18.038-6.357 22.664-5.387 3.689-12.796 1.877-18.588-1.132-5.791-3.01-11.259-7.167-17.73-8.04-8.606-1.165-17.196 4.06-21.968 11.324-4.773 7.263-6.31 16.177-6.568 24.864-.745 24.654 8.638 49.26 24.864 67.782h232.401Z"/>
  <path stroke="#9CA3AF" stroke-miterlimit="10" stroke-width="2" d="M2.911 175.698h272.294"/>
  <path fill="#F7BE8F" d="M210.337 170.218h-79.77a5.343 5.343 0 0 0-5.338 5.338h85.108v-5.338Z"/>
  <path fill="#FDE3D1" d="M236.204 134.466h-55.212a3.816 3.816 0 0 0-3.511 2.33l-15.223 35.67c-.631 1.456.453 3.09 2.039 3.09h57.04a3.816 3.816 0 0 0 3.511-2.329l14.511-34.005c.97-2.248-.696-4.756-3.139-4.756h-.016Z"/>
  <path fill="#F7BE8F" d="M207.603 155.804c-.841 3.429-4.303 6.195-7.733 6.195-3.429 0-5.516-2.782-4.675-6.195.841-3.43 4.303-6.196 7.733-6.196 3.429 0 5.516 2.782 4.675 6.196Z"/>
  <path stroke="#9CA3AF" stroke-miterlimit="10" d="M125.083 178.274h96.901m-55.52 2.766h51.379"/>
  <path fill="#fff" stroke="#0A5A4D" stroke-miterlimit="10" stroke-width="1.05" d="M257.59 47.805H131.15c-5.711 0-10.338 4.627-10.338 10.337v53.789c0 5.711 4.627 10.337 10.338 10.337h48.644l8.72 8.72 8.719-8.72h60.373c5.711 0 10.338-4.626 10.338-10.337V58.158c0-5.71-4.627-10.337-10.338-10.337l-.016-.016Z"/>
  <path fill="#86C0B7" d="M148.646 79.415c5.5-2.317 8.081-8.654 5.764-14.154-2.317-5.5-8.653-8.081-14.154-5.764-5.5 2.316-8.081 8.653-5.764 14.153 2.317 5.5 8.653 8.081 14.154 5.765Z"/>
  <path fill="url(#a)" d="m166.966 59.647 1.99 5.953 6.26-.049-5.047 3.721 1.99 5.937-5.096-3.64-5.047 3.72 1.892-5.969-5.095-3.655 6.26-.049 1.893-5.97Z"/>
  <path fill="url(#b)" d="m186.928 59.647 1.99 5.953 6.261-.049-5.031 3.721 1.973 5.937-5.096-3.64-5.047 3.72 1.893-5.969-5.096-3.655 6.261-.049 1.892-5.97Z"/>
  <path fill="url(#c)" d="m206.907 59.647 1.974 5.953 6.277-.049-5.048 3.721 1.974 5.937-5.096-3.64-5.031 3.72 1.877-5.969-5.096-3.655 6.276-.049 1.893-5.97Z"/>
  <path fill="#CFE6E2" d="m226.87 59.647 1.973 5.953 6.277-.049-5.047 3.721 1.99 5.937-5.112-3.64-5.031 3.72 1.892-5.969-5.112-3.655 6.277-.049 1.893-5.97Zm19.963 0 1.989 5.953 6.261-.049-5.047 3.721 1.989 5.937-5.095-3.64-5.048 3.72 1.893-5.969-5.096-3.655 6.261-.049 1.893-5.97Z"/>
  <path fill="#258D7D" d="M142.619 85.093h-9.544v2.556h9.544v-2.556Zm16.647 0h-14.301v2.556h14.301v-2.556Z"/>
  <path fill="#86C0B7" d="M153.652 92.664h-20.577v2.556h20.577v-2.556Zm56.555 0h-48.159v2.556h48.159v-2.556Zm45.442 0h-37.062v2.556h37.062v-2.556Zm-76.55 8.121h-46.024v2.556h46.024v-2.556Zm76.566 0h-23.004v2.556h23.004v-2.556Zm-28.423 0h-40.314v2.556h40.314v-2.556Zm-35.428 8.105h-58.739v2.556h58.739v-2.556Z"/>
  <path fill="#fff" stroke="#0A5A4D" stroke-miterlimit="10" stroke-width="1.05" d="M264.498 6.893h-82.536a6.746 6.746 0 0 0-6.746 6.746v16.533a6.746 6.746 0 0 0 6.746 6.746h82.536a6.746 6.746 0 0 0 6.746-6.746V13.639a6.746 6.746 0 0 0-6.746-6.746Z"/>
  <path fill="url(#d)" d="m206.956 16.81 1.294 3.866 4.093-.032-3.284 2.442 1.294 3.883-3.333-2.378-3.284 2.426 1.23-3.898-3.333-2.378 4.093-.033 1.23-3.898Z"/>
  <path fill="url(#e)" d="m219.995 16.81 1.294 3.866 4.093-.032-3.301 2.442 1.295 3.883-3.317-2.378-3.3 2.426 1.23-3.898-3.317-2.378 4.093-.033 1.23-3.898Z"/>
  <path fill="url(#f)" d="m233.017 16.81 1.311 3.866 4.076-.032-3.284 2.442 1.294 3.883-3.332-2.378-3.284 2.426 1.229-3.898-3.332-2.378 4.093-.033 1.229-3.898Z"/>
  <path fill="url(#g)" d="m246.056 16.81 1.294 3.866 4.093-.032-3.284 2.442 1.294 3.883-3.332-2.378-3.301 2.426 1.246-3.898-3.332-2.378 4.092-.033 1.23-3.898Z"/>
  <path fill="#CFE6E2" d="m259.095 16.81 1.294 3.866 4.093-.032-3.3 2.442 1.294 3.883-3.333-2.378-3.284 2.426 1.23-3.898-3.333-2.378 4.093-.033 1.246-3.898Z"/>
  <path fill="#86C0B7" d="M196.077 21.537a6.018 6.018 0 1 0-11.882-1.92 6.018 6.018 0 0 0 11.882 1.92Z"/>
  <path fill="#258D7D" d="M188.19 27.842h-5.322v1.424h5.322v-1.424Zm9.286 0h-7.975v1.424h7.975v-1.424Z"/>
  <path fill="#fff" stroke="#0A5A4D" stroke-miterlimit="10" stroke-width="1.05" d="M70.841 34.362H14.19a4.643 4.643 0 0 0-4.643 4.643v11.324a4.643 4.643 0 0 0 4.643 4.642h56.65a4.643 4.643 0 0 0 4.643-4.642V39.005a4.643 4.643 0 0 0-4.643-4.643Z"/>
  <path fill="url(#h)" d="m31.353 41.156.89 2.67 2.798-.017-2.248 1.666.89 2.67-2.298-1.634-2.248 1.666.84-2.685-2.28-1.634 2.798-.016.858-2.686Z"/>
  <path fill="url(#i)" d="m40.299 41.156.89 2.67 2.798-.017-2.248 1.666.89 2.67-2.298-1.634-2.249 1.666.842-2.685-2.281-1.634 2.798-.016.858-2.686Z"/>
  <path fill="url(#j)" d="m49.245 41.156.89 2.67 2.814-.017-2.265 1.666.89 2.67-2.28-1.634-2.266 1.666.842-2.685-2.281-1.634 2.814-.016.842-2.686Z"/>
  <path fill="url(#k)" d="m58.19 41.156.89 2.67 2.815-.017-2.265 1.666.89 2.67-2.28-1.634-2.266 1.666.842-2.685-2.281-1.634 2.814-.016.842-2.686Z"/>
  <path fill="#CFE6E2" d="m67.137 41.156.89 2.67 2.814-.017-2.265 1.666.89 2.67-2.28-1.634-2.266 1.666.858-2.685-2.297-1.634 2.814-.016.842-2.686Z"/>
  <path fill="#86C0B7" d="M23.887 44.433a4.141 4.141 0 1 0-8.173-1.343 4.141 4.141 0 0 0 8.173 1.343Z"/>
  <path fill="#258D7D" d="M18.46 48.743h-3.657v.97h3.657v-.97Zm6.373 0h-5.467v.97h5.467v-.97Z"/>
  <path fill="#86C0B7" d="m95.333 5.081 3.058 9.4h9.884l-8.008 5.807 3.058 9.399-7.992-5.808-7.991 5.808 3.057-9.4-8.007-5.807h9.884l3.057-9.399Zm15.078 22.535 2.329 7.166h7.555l-6.099 4.433 2.329 7.183-6.114-4.433-6.099 4.433 2.329-7.183-6.099-4.433h7.539l2.33-7.166Zm-9.852 21.758 1.358 4.174h4.384l-3.558 2.588 1.358 4.174-3.542-2.588-3.56 2.588 1.36-4.174-3.543-2.588H99.2l1.359-4.174Z"/>
  <path fill="#462929" d="M93.877 81.615c.664 3.349.486 6.795.745 10.192.258 3.397 1.035 6.924 3.267 9.512 1.893 2.184 4.74 3.559 6.083 6.115 1.035 1.941 1.003 4.335.243 6.39-.761 2.054-2.217 3.818-3.899 5.225-5.808 4.853-14.495 5.63-21.37 2.475-6.875-3.154-11.81-9.9-13.443-17.293-1.618-7.393-.097-15.288 3.543-21.92 2.054-3.737 4.885-7.215 8.703-9.14 3.154-1.586 7.894-2.184 11.081-.26 2.734 1.65 4.449 5.792 5.047 8.736v-.032Z"/>
  <path fill="#925147" d="M148.572 157.583s-1.229 2.653-4.367 1.068l-2.055 3.882 5.128 2.718 3.721-7.021-1.472-6.924s-1.391.55-1.359 2.039c.032 1.488.404 4.254.404 4.254v-.016Z"/>
  <path fill="#9A513A" d="M153.264 166.658a4.343 4.343 0 0 0-2.297-3.898l-5.371-2.847-1.116 2.086 8.768 4.643.016.016Z"/>
  <path fill="#AC6A56" d="M154.768 169.053a4.345 4.345 0 0 0-2.297-3.899l-6.163-3.268-1.117 2.087 9.561 5.064.016.016Z"/>
  <path fill="url(#l)" d="m147.553 144.706 1.78 5.355 5.662-.049-4.546 3.365 1.779 5.371-4.594-3.3-4.546 3.365 1.699-5.387-4.594-3.284 5.645-.049 1.715-5.387Z"/>
  <path fill="#B57A69" d="m144.091 158.602.259-1.876 2.168-1.715a2.73 2.73 0 0 0 1.051-2.152v-.21l-6.616 2.362-2.88 3.413-1.86 3.511 10.014 5.306.679-1.278a5.191 5.191 0 0 0-2.168-7.021l-.631-.34h-.016Z"/>
  <path fill="#B57A69" d="M153.248 170.962a4.344 4.344 0 0 0-2.298-3.899l-6.163-3.268-1.116 2.087 9.56 5.063.017.017Z"/>
  <path stroke="#A25646" stroke-linecap="round" stroke-linejoin="round" stroke-width="1.86" d="M144.01 158.408a9.659 9.659 0 0 1-2.361 2.508"/>
  <path fill="#B57A69" d="m108.21 158.376 30.478.501-.113 4.174-36.285 5.549 5.92-10.224Z"/>
  <path fill="#383757" d="M79.981 119.227h8.946a9.856 9.856 0 0 1 9.334 6.681l12.991 38s-.906 7.037-6.406 7.668c-2.071.243-4.045-.889-5.015-2.734l-19.85-37.66v-11.955Z"/>
  <path fill="#383757" d="m102.645 157.761 29.411.987-9.691 12.23-18.587 1.116c-2.459.146-4.336-2.151-3.721-4.53l1.213-4.626 1.359-5.161.016-.016Z"/>
  <path stroke="#484564" stroke-linecap="round" stroke-miterlimit="10" stroke-width="1.86" d="M108.21 158.376c-2.41 1.456-5.112 3.688-6.357 6.212m6.357-6.212c-3.122.129-6.956.534-9.237 2.669"/>
  <path fill="#fff" d="M86.646 201.714c-4.788.486-9.77.373-14.56-.097-7.635-.728-14.397-4.351-20.98-8.007a258.845 258.845 0 0 1-2.864-1.618c3.478-5.5 7.894-11.178 12.99-14.786h25.414l8.234 22.519c-2.556 1.197-5.516 1.714-8.218 1.989h-.016Z"/>
  <path fill="#484564" d="m57.204 176.025-7.377-50.861 3.705-6.002h33.794l9.285 25.027s-7.765 24.071-7.765 33.001l8.558 24.832-10.094 3.882-7.782-23.861-8.541 23.683-26.595-11.065 12.812-18.636Z"/>
  <path fill="#383757" d="m49.827 125.148 3.753-6.066h4.837l1.424 12.1-4.66 30.85-5.354-36.884Z"/>
  <path fill="#fff" d="M85.757 119.324v28.634l-23.975-28.634h23.975Z"/>
  <path fill="#B57A69" d="M71.052 126.216a29.181 29.181 0 0 1-4.902-1.667l-4.578-5.467h24.184v4.206c-3.38 3.995-9.803 4.092-14.688 2.928h-.016Z"/>
  <path fill="#636080" d="M61.572 119.082v17.875h10.256l-5.694 12.036 20.367-.162-24.93-29.749Z"/>
  <path fill="#636080" d="M85.757 119.082h1.536l11.988 17.875h-9.464l10.224 12.036H85.902l-.145-29.911Z"/>
  <path stroke="#383757" stroke-miterlimit="10" stroke-width="1.86" d="M85.87 148.961c-2.314 10.903-3.996 21.952-6.31 32.855m-11 2.945a28.25 28.25 0 0 1-10.952-2.847"/>
  <path fill="#484564" d="M59.84 119.082h-8.945a9.856 9.856 0 0 0-9.335 6.681l-12.99 38s.146 2.815 1.456 5.209c2.07 3.818 7.215 4.788 9.254.954l20.56-38.89v-11.954Z"/>
  <path fill="#925147" d="m72.28 159.913 2.46 2.119 5.872 1.343-.032-.211a2.73 2.73 0 0 0-1.327-1.99l-1.472-1.18.42-1.634 2.476-2.055-2.993-2.588-6.406 4.206 1.003 1.973v.017Z"/>
  <path fill="url(#m)" d="m77.992 155.739 4.092 3.899 4.983-2.686-2.443 5.096 4.077 3.899-5.597-.744-2.443 5.095-1.02-5.565-5.613-.76 4.983-2.685-1.02-5.549Z"/>
  <path fill="#925147" d="M81.68 157.81s-1.262-1.974-3.575-.372l-2.039-2.848 4.174-2.912 3.705 5.161-.825 4.74s-1.165-.291-1.294-1.472a27.368 27.368 0 0 1-.146-2.281v-.016Z"/>
  <path fill="#B57A69" d="m72.54 160.349-2.443-3.267 9.06-7.005.84 1.181c1.667 2.329 1.586 4.432.146 5.565l-1.957 1.553-5.662 1.973h.016Z"/>
  <path fill="#B57A69" d="M85.87 153.102a.325.325 0 0 1 .372.453 3.566 3.566 0 0 1-2.394 2.038l-5.533 1.359-.47-1.876 8.025-1.974Zm-.76-7.83a.396.396 0 0 1 .647.308 4.325 4.325 0 0 1-1.618 3.526l-5.468 4.4-1.505-1.86 7.927-6.39.016.016Z"/>
  <path fill="#B57A69" d="M86.274 149.139a.397.397 0 0 1 .566.436 4.347 4.347 0 0 1-2.33 3.106l-5.483 2.734-1.068-2.135 8.299-4.125.016-.016Z"/>
  <path fill="#484564" d="m38.163 156.062 29.993-.177-9.334 13.022-23.247 3.494c-3.009.453-5.549-2.184-5.015-5.176.858-4.805 2.863-10.774 7.603-11.163Z"/>
  <path stroke="#383757" stroke-linecap="round" stroke-miterlimit="10" stroke-width="1.86" d="m46.3 156.03-9.82.21m9.82-.226-10.24 2.734"/>
  <path fill="#B57A69" d="m67.476 95.156 1.052 26.384a1.976 1.976 0 0 0 1.973 1.893h12.99c1.618 0 2.395-1.957 1.246-3.09-2.49-2.442-5.014-6.616-5.014-13.556V95.673l-12.247-.534v.017Z"/>
  <path fill="#925147" d="m73.462 95.414 6.26.275v11.114c0 3.058.486 5.565 1.246 7.636-7.199-2.443-9.625-12.085-7.506-19.025Z"/>
  <path fill="#B57A69" d="M70.68 105.04a20.338 20.338 0 0 1-2.557-2.103c-4.173-4.06-6.665-9.529-7.247-15.32-.55-5.387.534-10.726 4.999-14.285 4.788-3.801 12.23-4.14 17.617-1.504 5.144 2.524 7.975 7.328 9.043 12.812.517 2.718.663 5.517.712 8.283.064 5.193-.728 15.158-6.698 16.404-6.438 1.326-11.146-1.1-15.87-4.287Z"/>
  <path fill="#462929" d="M90.658 82.343c1.715 2.443 2.2 5.516 2.653 8.477a21.578 21.578 0 0 0 0-11.648c-.501-1.78-1.245-3.51-2.475-4.885s-2.993-2.33-4.837-2.313c-2.88.048-6.341 4.011-3.365 6.406.906.728 2.46.582 3.527.873 1.812.486 3.413 1.553 4.497 3.09Z"/>
  <path fill="#462929" d="M83.767 84.527c-1.941 1.763-4.352 2.928-6.908 3.478-2.637.55-5.807.405-7.797 2.508-6.002 6.39-.939 14.074 2.119 20.528 1.537 3.252 3.138 7.021 2.297 10.677-1.068 4.676-5.63 6.908-10.127 6.924-7.312.033-12.958-5.403-14.43-12.375-.76-3.608-.242-7.215 1.165-10.596 1.294-3.106 3.365-5.857 4.4-9.076 1.65-5.16-.695-10.596.987-15.837 3.332-10.418 19.348-20.642 29.119-12.15 5.63 4.902 3.801 11.745-.825 15.935v-.016Z"/>
  <path fill="#462929" d="M69.45 86.824c-1.31 1.246-2.168 3.01-2.362 4.805-.21 2.054.34 4.125 1.375 5.937l1.343-.227c.145-2.345.728-4.675 1.472-6.875a23.56 23.56 0 0 1 1.23-2.977c-.405-1.844-1.861-1.779-3.042-.646l-.016-.017Z"/>
  <path stroke="#925147" stroke-linecap="round" stroke-miterlimit="10" stroke-width="1.22" d="M87.115 92.066a14.78 14.78 0 0 0 2.071 4.869c.34.518.744 1.1.599 1.715-.13.566-.696.906-1.214 1.197"/>
  <path fill="#EF7A7B" d="M85.11 103.325a1.472 1.472 0 0 0 1.714 1.197 1.472 1.472 0 0 0 1.197-1.715 1.472 1.472 0 0 0-1.715-1.197 1.473 1.473 0 0 0-1.197 1.715Z"/>
  <path stroke="#925147" stroke-linecap="round" stroke-miterlimit="10" stroke-width="1.22" d="M88.814 102.225a5.752 5.752 0 0 1-5.16.34"/>
  <path stroke="#462929" stroke-linecap="round" stroke-miterlimit="10" stroke-width="1.82" d="M92.308 87.31c-1.326-.745-2.718-.567-3.753.485m-6.584.857c-1.86-.598-3.834-.275-5.387.89"/>
  <path fill="#462929" d="M81.631 92.761a1.308 1.308 0 0 1-1.067 1.521 1.308 1.308 0 0 1-1.521-1.068 1.308 1.308 0 0 1 1.068-1.52 1.308 1.308 0 0 1 1.52 1.067Zm10.069-.706a1.327 1.327 0 1 0-2.618-.431 1.327 1.327 0 0 0 2.617.431Z"/>
  <path fill="#B57A69" d="M68.156 94.395c-.906-.76-2.2-1.18-3.3-.744-.89.356-1.505 1.213-1.715 2.151-.21.939-.065 1.91.259 2.8 1.019 2.863 3.866 4.966 6.891 5.095.631.032.275-4.983.194-5.468-.275-1.44-1.23-2.896-2.33-3.85v.016Z"/>
  <path fill="#fff" d="M69.418 102.37a1.293 1.293 0 0 1-1.052 1.505 1.293 1.293 0 0 1-1.504-1.052 1.293 1.293 0 0 1 1.051-1.504 1.293 1.293 0 0 1 1.505 1.051Z"/>
  <path stroke="#925147" stroke-linecap="round" stroke-miterlimit="10" stroke-width="1.22" d="M65.082 95.673c.518-.437 1.294-.485 1.925-.226.631.258 1.1.808 1.391 1.423.292.615.421 1.294.486 1.958-.34-.308-.89-.356-1.262-.081a1.025 1.025 0 0 0-.307 1.23c.194.42.711.646 1.148.533"/>
  <defs>
    <linearGradient id="a" x1="158.813" x2="175.216" y1="67.476" y2="67.476" gradientUnits="userSpaceOnUse">
      <stop stop-color="#EAC56A"/>
      <stop offset=".5" stop-color="#F5A362"/>
      <stop offset="1" stop-color="#E86F51"/>
    </linearGradient>
    <linearGradient id="b" x1="178.775" x2="195.179" y1=".196" y2=".196" gradientUnits="userSpaceOnUse">
      <stop stop-color="#EAC56A"/>
      <stop offset=".5" stop-color="#F5A362"/>
      <stop offset="1" stop-color="#E86F51"/>
    </linearGradient>
    <linearGradient id="c" x1="198.738" x2="215.158" y1=".196" y2=".196" gradientUnits="userSpaceOnUse">
      <stop stop-color="#EAC56A"/>
      <stop offset=".5" stop-color="#F5A362"/>
      <stop offset="1" stop-color="#E86F51"/>
    </linearGradient>
    <linearGradient id="d" x1="201.633" x2="212.343" y1="21.905" y2="21.905" gradientUnits="userSpaceOnUse">
      <stop stop-color="#EAC56A"/>
      <stop offset=".5" stop-color="#F5A362"/>
      <stop offset="1" stop-color="#E86F51"/>
    </linearGradient>
    <linearGradient id="e" x1="214.672" x2="225.382" y1="21.905" y2="21.905" gradientUnits="userSpaceOnUse">
      <stop stop-color="#EAC56A"/>
      <stop offset=".5" stop-color="#F5A362"/>
      <stop offset="1" stop-color="#E86F51"/>
    </linearGradient>
    <linearGradient id="f" x1="227.695" x2="238.404" y1="21.905" y2="21.905" gradientUnits="userSpaceOnUse">
      <stop stop-color="#EAC56A"/>
      <stop offset=".5" stop-color="#F5A362"/>
      <stop offset="1" stop-color="#E86F51"/>
    </linearGradient>
    <linearGradient id="g" x1="240.734" x2="251.443" y1="21.905" y2="21.905" gradientUnits="userSpaceOnUse">
      <stop stop-color="#EAC56A"/>
      <stop offset=".5" stop-color="#F5A362"/>
      <stop offset="1" stop-color="#E86F51"/>
    </linearGradient>
    <linearGradient id="h" x1="27.697" x2="35.041" y1="44.667" y2="44.667" gradientUnits="userSpaceOnUse">
      <stop stop-color="#EAC56A"/>
      <stop offset=".5" stop-color="#F5A362"/>
      <stop offset="1" stop-color="#E86F51"/>
    </linearGradient>
    <linearGradient id="i" x1="36.643" x2="43.987" y1="44.667" y2="44.667" gradientUnits="userSpaceOnUse">
      <stop stop-color="#EAC56A"/>
      <stop offset=".5" stop-color="#F5A362"/>
      <stop offset="1" stop-color="#E86F51"/>
    </linearGradient>
    <linearGradient id="j" x1="45.589" x2="52.949" y1="44.667" y2="44.667" gradientUnits="userSpaceOnUse">
      <stop stop-color="#EAC56A"/>
      <stop offset=".5" stop-color="#F5A362"/>
      <stop offset="1" stop-color="#E86F51"/>
    </linearGradient>
    <linearGradient id="k" x1="54.535" x2="61.895" y1="44.667" y2="44.667" gradientUnits="userSpaceOnUse">
      <stop stop-color="#EAC56A"/>
      <stop offset=".5" stop-color="#F5A362"/>
      <stop offset="1" stop-color="#E86F51"/>
    </linearGradient>
    <linearGradient id="l" x1="140.193" x2="154.995" y1="151.759" y2="151.759" gradientUnits="userSpaceOnUse">
      <stop stop-color="#EAC56A"/>
      <stop offset=".5" stop-color="#F5A362"/>
      <stop offset="1" stop-color="#E86F51"/>
    </linearGradient>
    <linearGradient id="m" x1="74.028" x2="88.701" y1="163.019" y2="163.019" gradientUnits="userSpaceOnUse">
      <stop stop-color="#EAC56A"/>
      <stop offset=".5" stop-color="#F5A362"/>
      <stop offset="1" stop-color="#E86F51"/>
    </linearGradient>
  </defs>
</svg>