<svg xmlns="http://www.w3.org/2000/svg" fill="none" viewBox="0 0 301 48">
  <path fill="#fff" d="M67.528 15.759c.92-.501 1.997-.754 3.23-.754 1.444 0 2.75.367 3.921 1.098 1.17.733 2.096 1.778 2.776 3.137.68 1.36 1.02 2.939 1.02 4.738 0 1.798-.34 3.382-1.02 4.752-.68 1.37-1.605 2.427-2.776 3.169-1.172.742-2.479 1.114-3.92 1.114-1.214 0-2.285-.25-3.216-.753-.931-.501-1.658-1.15-2.18-1.944v10.07h-5.364v-25.13h5.364v2.479c.522-.815 1.243-1.475 2.165-1.976Zm4.377 5.066c-.743-.762-1.659-1.144-2.745-1.144s-1.97.387-2.713 1.161c-.742.774-1.114 1.83-1.114 3.17 0 1.338.37 2.394 1.114 3.168.743.774 1.647 1.161 2.713 1.161s1.976-.392 2.73-1.176c.753-.783 1.129-1.845 1.129-3.184 0-1.338-.372-2.389-1.114-3.152v-.004Zm9.348-1.585c.678-1.36 1.604-2.404 2.776-3.137 1.17-.731 2.479-1.098 3.92-1.098 1.234 0 2.317.25 3.248.754.931.5 1.647 1.16 2.148 1.976v-2.48h5.364v17.506h-5.364v-2.48c-.523.816-1.25 1.476-2.18 1.977-.93.503-2.013.753-3.247.753-1.423 0-2.719-.37-3.89-1.114-1.173-.742-2.099-1.798-2.777-3.169-.68-1.37-1.02-2.954-1.02-4.752 0-1.799.341-3.377 1.02-4.738l.002.002Zm10.98 1.6c-.743-.774-1.647-1.16-2.713-1.16s-1.97.38-2.713 1.144c-.742.762-1.114 1.815-1.114 3.152 0 1.337.37 2.4 1.114 3.184.742.785 1.647 1.176 2.713 1.176s1.97-.387 2.713-1.161c.742-.774 1.114-1.83 1.114-3.17 0-1.338-.372-2.394-1.114-3.168v.003Zm18.084-4.941c.941-.553 1.988-.832 3.137-.832v5.678h-1.475c-1.338 0-2.342.288-3.012.862-.669.576-1.004 1.584-1.004 3.027v8.125H102.6V15.256h5.363v2.916c.629-.96 1.412-1.72 2.352-2.275l.002.002Zm5.662 3.341c.678-1.36 1.604-2.404 2.776-3.137 1.17-.731 2.477-1.098 3.92-1.098 1.234 0 2.317.25 3.248.754.931.5 1.647 1.16 2.15 1.976v-2.48h5.364v17.506h-5.364v-2.48c-.524.816-1.251 1.476-2.18 1.977-.931.503-2.014.753-3.248.753-1.422 0-2.718-.37-3.89-1.114-1.172-.742-2.098-1.798-2.776-3.169-.681-1.37-1.019-2.954-1.019-4.752 0-1.799.34-3.377 1.019-4.738v.002Zm10.98 1.6c-.743-.774-1.647-1.16-2.713-1.16s-1.973.38-2.713 1.144c-.742.762-1.114 1.815-1.114 3.152 0 1.337.372 2.4 1.114 3.184.742.785 1.647 1.176 2.713 1.176s1.97-.387 2.713-1.161c.742-.774 1.114-1.83 1.114-3.17 0-1.338-.372-2.394-1.114-3.168v.003Zm25.942-3.78c1.223 1.328 1.836 3.152 1.836 5.474v10.227h-5.332v-9.505c0-1.17-.303-2.081-.91-2.73-.608-.648-1.423-.972-2.448-.972-1.024 0-1.839.325-2.447.972-.608.649-.911 1.558-.911 2.73v9.505h-5.363V15.256h5.363v2.322c.544-.774 1.275-1.385 2.197-1.836.92-.449 1.956-.675 3.106-.675 2.049 0 3.686.664 4.909 1.993Zm5.521 2.18c.679-1.36 1.604-2.404 2.777-3.137 1.17-.731 2.479-1.098 3.92-1.098 1.234 0 2.316.25 3.248.754.931.5 1.647 1.16 2.148 1.976v-2.48h5.364v17.506h-5.364v-2.48c-.524.816-1.251 1.476-2.18 1.977-.931.503-2.014.753-3.248.753-1.422 0-2.718-.37-3.89-1.114-1.173-.742-2.098-1.798-2.777-3.169-.68-1.37-1.019-2.954-1.019-4.752 0-1.799.341-3.377 1.019-4.738l.002.002Zm10.98 1.6c-.742-.774-1.647-1.16-2.712-1.16-1.066 0-1.971.38-2.713 1.144-.743.762-1.115 1.815-1.115 3.152 0 1.337.371 2.4 1.115 3.184.742.785 1.647 1.176 2.713 1.176 1.065 0 1.97-.387 2.712-1.161.743-.774 1.115-1.83 1.115-3.17 0-1.338-.372-2.394-1.115-3.168v.003Zm18.24 6.901 3.795-12.485h5.71l-6.211 17.505h-6.618l-6.211-17.505h5.742l3.795 12.485h-.002Zm11.717-8.501c.678-1.36 1.604-2.404 2.776-3.137 1.171-.731 2.479-1.098 3.921-1.098 1.234 0 2.316.25 3.247.754.931.5 1.647 1.16 2.148 1.976v-2.48h5.364v17.506h-5.364v-2.48c-.523.816-1.25 1.476-2.18 1.977-.931.503-2.013.753-3.247.753-1.423 0-2.718-.37-3.891-1.114-1.172-.742-2.097-1.798-2.776-3.169-.681-1.37-1.019-2.954-1.019-4.752 0-1.799.34-3.377 1.019-4.738l.002.002Zm10.98 1.6c-.742-.774-1.647-1.16-2.713-1.16s-1.97.38-2.713 1.144c-.742.762-1.114 1.815-1.114 3.152 0 1.337.37 2.4 1.114 3.184.743.785 1.647 1.176 2.713 1.176s1.971-.387 2.713-1.161 1.114-1.83 1.114-3.17c0-1.338-.372-2.394-1.114-3.168v.003Zm15.733-6.149v18.07h-5.366v-12.7l4.818-4.822.548-.548Z"/>
  <path fill="url(#a)" d="M226.069 7.634v3.142c0 1.481-.6 2.822-1.57 3.794l-3.793 3.793V13a5.366 5.366 0 0 1 5.365-5.365h-.002Z"/>
  <path fill="url(#b)" d="M232.722 32.767a2.785 2.785 0 1 0 0-5.571 2.785 2.785 0 0 0 0 5.57Z"/>
  <path fill="#fff" d="M238.885 19.24c.679-1.36 1.605-2.404 2.777-3.137 1.17-.731 2.479-1.098 3.92-1.098 1.234 0 2.317.25 3.248.754.931.5 1.647 1.16 2.148 1.976v-2.48h5.364v17.506h-5.364v-2.48c-.523.816-1.251 1.476-2.18 1.977-.931.503-2.013.753-3.247.753-1.423 0-2.719-.37-3.891-1.114-1.172-.742-2.098-1.798-2.776-3.169-.681-1.37-1.019-2.954-1.019-4.752 0-1.799.34-3.377 1.019-4.738l.001.002Zm10.981 1.6c-.743-.774-1.648-1.16-2.713-1.16-1.066 0-1.971.38-2.713 1.144-.742.762-1.114 1.815-1.114 3.152 0 1.337.37 2.4 1.114 3.184.742.785 1.647 1.176 2.713 1.176 1.065 0 1.97-.387 2.713-1.161.742-.774 1.114-1.83 1.114-3.17 0-1.338-.372-2.394-1.114-3.168v.003Zm39.194-5.081c.92-.501 1.997-.754 3.231-.754 1.443 0 2.75.367 3.921 1.098 1.17.733 2.095 1.778 2.776 3.137.679 1.36 1.019 2.939 1.019 4.738 0 1.798-.34 3.382-1.019 4.752-.681 1.37-1.606 2.427-2.776 3.169-1.173.742-2.48 1.114-3.921 1.114-1.213 0-2.285-.25-3.216-.753-.931-.501-1.658-1.15-2.18-1.944v10.07h-5.364v-25.13h5.364v2.479c.524-.815 1.244-1.475 2.165-1.976Zm4.377 5.066c-.742-.762-1.658-1.144-2.744-1.144-1.087 0-1.973.387-2.713 1.161-.743.774-1.115 1.83-1.115 3.17 0 1.338.372 2.394 1.115 3.168.742.774 1.647 1.161 2.713 1.161 1.065 0 1.976-.392 2.729-1.176.754-.783 1.129-1.845 1.129-3.184 0-1.338-.372-2.389-1.114-3.152v-.004Zm-25.675-5.066c.92-.501 1.996-.754 3.23-.754 1.444 0 2.751.367 3.921 1.098 1.17.733 2.096 1.778 2.776 3.137.679 1.36 1.019 2.939 1.019 4.738 0 1.798-.34 3.382-1.019 4.752-.68 1.37-1.606 2.427-2.776 3.169-1.172.742-2.479 1.114-3.921 1.114-1.213 0-2.284-.25-3.215-.753-.931-.501-1.659-1.15-2.18-1.944v10.07h-5.364v-25.13h5.364v2.479c.523-.815 1.243-1.475 2.165-1.976Zm4.376 5.066c-.742-.762-1.658-1.144-2.744-1.144-1.086 0-1.972.387-2.713 1.161-.742.774-1.114 1.83-1.114 3.17 0 1.338.372 2.394 1.114 3.168.742.774 1.647 1.161 2.713 1.161s1.976-.392 2.73-1.176c.753-.783 1.129-1.845 1.129-3.184 0-1.338-.372-2.389-1.115-3.152v-.004Z"/>
  <path fill="url(#c)" d="M48 24c0 13.255-10.745 24-24 24a23.89 23.89 0 0 1-13.235-3.977l9.6-9.6a28.705 28.705 0 0 0 6.17-9.152 28.613 28.613 0 0 0 2.266-11.21V.481C39.757 2.702 48.002 12.39 48.002 24H48Z"/>
  <path fill="url(#d)" d="M24 0v14.061a23.914 23.914 0 0 1-7.028 16.967L0 48V24C0 12.207 8.507 2.399 19.72.381A24.16 24.16 0 0 1 24 0Z"/>
  <defs>
    <linearGradient id="a" x1="220.706" x2="226.069" y1="12.997" y2="12.997" gradientUnits="userSpaceOnUse">
      <stop stop-color="#095A4D"/>
      <stop offset=".5" stop-color="#0D806E"/>
      <stop offset="1" stop-color="#258D7D"/>
    </linearGradient>
    <linearGradient id="b" x1="229.936" x2="235.506" y1="29.981" y2="29.981" gradientUnits="userSpaceOnUse">
      <stop stop-color="#E9C46A"/>
      <stop offset=".5" stop-color="#F4A261"/>
      <stop offset="1" stop-color="#E76F51"/>
    </linearGradient>
    <linearGradient id="c" x1="10.765" x2="48" y1="24.239" y2="24.239" gradientUnits="userSpaceOnUse">
      <stop stop-color="#E9C46A"/>
      <stop offset=".5" stop-color="#F4A261"/>
      <stop offset="1" stop-color="#E76F51"/>
    </linearGradient>
    <linearGradient id="d" x1="0" x2="24" y1="24" y2="24" gradientUnits="userSpaceOnUse">
      <stop stop-color="#095A4D"/>
      <stop offset=".5" stop-color="#0D806E"/>
      <stop offset="1" stop-color="#258D7D"/>
    </linearGradient>
  </defs>
</svg>